<?xml version="1.0" encoding="UTF-8"?>
<svg id="Layer_1" data-name="Layer 1" xmlns="http://www.w3.org/2000/svg" viewBox="0 0 232.23 257.28">
  <defs>
    <style>
      .cls-1 {
        fill-rule: evenodd;
      }

      .cls-1, .cls-2 {
        fill: #10b981;
      }
    </style>
  </defs>
  <path class="cls-1" d="M208.37,136.63c2.11,2.06,5,3.34,8.19,3.34,6.48,0,11.74-5.25,11.74-11.74s-5.25-11.74-11.74-11.74c-3.22,0-6.13,1.3-8.25,3.4l-13.93-10.92,1.73-1v-23.57l-20.41-11.79-1.56.9-3.09-22.93c5.02-1.33,8.73-5.89,8.73-11.33,0-6.48-5.25-11.74-11.74-11.74s-11.74,5.25-11.74,11.74c0,1.07.16,2.11.43,3.09l-19.59,8.12v-1.73l-20.41-11.79-20.41,11.79v1.73l-19.59-8.12c.27-.99.43-2.02.43-3.1,0-6.48-5.25-11.74-11.74-11.74s-11.74,5.25-11.74,11.74c0,5.44,3.71,10,8.73,11.33l-3.09,22.93-1.56-.9-20.41,11.79v23.57l1.73,1-13.93,10.92c-2.12-2.1-5.03-3.39-8.25-3.39-6.48,0-11.74,5.25-11.74,11.74s5.25,11.74,11.74,11.74c3.19,0,6.07-1.27,8.19-3.34l14.15,11.26-1.88,1.09v23.57l20.41,11.79,1.56-.9,3.09,22.93c-5.02,1.33-8.73,5.89-8.73,11.33,0,6.48,5.25,11.74,11.74,11.74s11.74-5.25,11.74-11.74c0-1.06-.15-2.07-.41-3.05l19.58-8.02v1.83l20.41,11.79,20.41-11.79v-1.83l19.58,8.02c-.26.97-.41,1.99-.41,3.05,0,6.48,5.25,11.74,11.74,11.74s11.74-5.25,11.74-11.74c0-5.44-3.71-10-8.73-11.33l3.09-22.93,1.56.9,20.41-11.79v-23.57l-1.88-1.09,14.15-11.26ZM206.49,122.21c-1.06,1.76-1.67,3.82-1.67,6.02s.64,4.31,1.72,6.09l-15.06,11.99-14.32-8.27v-19.14l14.47-8.35,14.87,11.66ZM135.46,183.93l-18.75-10.83-18.75,10.83-19.81-12.26v-22.69l-18.94-10.94v-19.14l18.94-10.94v-22.51l20.04-12.07,18.53,10.7,18.53-10.7,20.04,12.07v22.51l18.94,10.94v19.14l-18.94,10.94v22.69l-19.81,12.26ZM157.84,45.07c2.02,3.53,5.82,5.92,10.18,5.92.03,0,.06,0,.09,0l3.25,24.13-14.08,8.13-20.16-12.14v-17.44l20.72-8.59ZM65.31,50.98s.06,0,.09,0c4.36,0,8.16-2.39,10.18-5.92l20.72,8.59v17.44l-20.16,12.14-14.08-8.13,3.25-24.13ZM26.89,134.32c1.08-1.78,1.72-3.86,1.72-6.09s-.62-4.26-1.67-6.02l14.87-11.66,14.47,8.35v19.14l-14.32,8.27-15.06-11.99ZM75.61,211.93c-2.02-3.56-5.83-5.96-10.21-5.96-.03,0-.06,0-.09,0l-3.25-24.13,13.93-8.04,20.31,12.57v17.08l-20.69,8.48ZM168.12,205.97s-.06,0-.09,0c-4.38,0-8.19,2.41-10.21,5.96l-20.69-8.48v-17.08l20.31-12.57,13.93,8.04-3.25,24.13Z"/>
  <path class="cls-1" d="M116.71,32c11.12,0,20.17-9.05,20.17-20.17h-2.94c0,9.5-7.73,17.22-17.22,17.22s-17.22-7.73-17.22-17.22h-2.94c0,11.12,9.05,20.17,20.17,20.17Z"/>
  <path class="cls-1" d="M116.71,21.7c5.45,0,9.86-4.42,9.86-9.86s-4.42-9.86-9.86-9.86-9.86,4.42-9.86,9.86,4.42,9.86,9.86,9.86Z"/>
  <path class="cls-1" d="M116.47,225.58c-11.12.14-20.06,9.29-19.92,20.41l2.94-.04c-.12-9.5,7.52-17.32,17.01-17.43,4.57-.07,8.94,1.69,12.23,4.9,3.3,3.22,5.14,7.52,5.2,12.11l2.94-.04c-.07-5.38-2.23-10.42-6.09-14.18-3.86-3.77-8.96-5.79-14.33-5.74Z"/>
  <path class="cls-1" d="M116.71,235.89c-5.45,0-9.86,4.42-9.86,9.86s4.42,9.86,9.86,9.86,9.86-4.42,9.86-9.86-4.42-9.86-9.86-9.86Z"/>
  <path class="cls-1" d="M214.74,89.89c1.18.21,2.36.31,3.53.31,4.11,0,8.11-1.25,11.54-3.66l-1.69-2.41c-3.76,2.64-8.33,3.66-12.87,2.86-4.54-.79-8.49-3.3-11.13-7.06-5.46-7.77-3.58-18.54,4.2-24l-1.69-2.41c-9.1,6.39-11.31,19-4.91,28.1,3.09,4.4,7.72,7.34,13.03,8.27Z"/>
  <circle class="cls-2" cx="218.21" cy="70.04" r="9.86"/>
  <path class="cls-1" d="M213.67,167.43c-5.25,1.21-9.72,4.4-12.57,8.96-2.85,4.56-3.75,9.97-2.54,15.23,1.22,5.25,4.4,9.72,8.96,12.57l1.56-2.5c-3.9-2.43-6.61-6.24-7.65-10.73-1.04-4.49-.27-9.11,2.16-13,2.43-3.9,6.24-6.61,10.73-7.65,4.48-1.04,9.1-.27,13,2.16l1.56-2.5c-4.56-2.85-9.97-3.75-15.22-2.54Z"/>
  <path class="cls-1" d="M218.21,177.21c-5.45,0-9.86,4.42-9.86,9.86s4.42,9.86,9.86,9.86,9.86-4.42,9.86-9.86-4.42-9.86-9.86-9.86Z"/>
  <path class="cls-1" d="M18.69,167.16c-5.33-.85-10.66.43-15.01,3.59l1.73,2.38c3.71-2.7,8.26-3.79,12.82-3.07,4.55.72,8.54,3.16,11.24,6.88,5.58,7.68,3.87,18.48-3.81,24.06l1.73,2.38c9-6.54,11-19.18,4.46-28.17-3.16-4.35-7.84-7.21-13.16-8.06Z"/>
  <path class="cls-1" d="M15.53,177.21c-5.45,0-9.86,4.42-9.86,9.86s4.42,9.86,9.86,9.86,9.86-4.42,9.86-9.86-4.42-9.86-9.86-9.86Z"/>
  <path class="cls-1" d="M19.82,89.73c5.27-1.15,9.77-4.27,12.68-8.8,6.01-9.36,3.29-21.86-6.06-27.87l-1.59,2.48c7.99,5.14,10.31,15.81,5.18,23.8-2.48,3.86-6.33,6.53-10.83,7.51-4.5.98-9.11.15-12.97-2.33l-1.59,2.48c3.29,2.11,7.03,3.2,10.85,3.2,1.44,0,2.89-.16,4.34-.47Z"/>
  <circle class="cls-2" cx="15.53" cy="70.04" r="9.86"/>
</svg>





