<?xml version="1.0" encoding="UTF-8"?>
<svg id="Layer_1" data-name="Layer 1" xmlns="http://www.w3.org/2000/svg" viewBox="0 0 791.52 257.28">
  <defs>
    <style>
      .cls-1 {
        fill: #fff;
      }

      .cls-2 {
        fill-rule: evenodd;
      }

      .cls-2, .cls-3 {
        fill: #0c391d;
      }
    </style>
  </defs>
  <g>
    <path class="cls-1" d="M449.52,180.14c-13.57,0-24.22-4.69-31.95-14.08-7.73-9.38-11.6-22.91-11.6-40.58v-63.04c0-1.38,1.12-2.5,2.5-2.5h27.88c1.38,0,2.5,1.12,2.5,2.5v59.97c0,9.62,1.81,17,5.44,22.13,3.63,5.13,9.07,7.69,16.33,7.69,7.89,0,14-2.8,18.34-8.4,4.34-5.6,6.51-13.37,6.51-23.31v-58.07c0-1.38,1.12-2.5,2.5-2.5h28.12c1.38,0,2.5,1.12,2.5,2.5v112.36c0,1.38-1.12,2.5-2.5,2.5h-28.12c-1.38,0-2.5-1.12-2.5-2.5v-6.47c0-2.32-2.88-3.39-4.39-1.63-2.75,3.19-5.98,5.89-9.69,8.12-5.92,3.55-13.21,5.33-21.89,5.33Z"/>
    <path class="cls-1" d="M535.66,174.8V62.44c0-1.38,1.12-2.5,2.5-2.5h28.12c1.38,0,2.5,1.12,2.5,2.5v7.23c0,2.28,2.82,3.4,4.34,1.7,3.12-3.49,6.84-6.44,11.16-8.83,6.54-3.63,14.24-5.44,23.07-5.44,14.83,0,26.19,4.7,34.08,14.08,7.89,9.39,11.83,22.92,11.83,40.58v63.04c0,1.38-1.12,2.5-2.5,2.5h-28.12c-1.38,0-2.5-1.12-2.5-2.5v-59.97c0-9.62-1.93-17-5.8-22.13-3.87-5.13-9.98-7.69-18.34-7.69-7.89,0-14.4,2.8-19.52,8.4-5.13,5.6-7.69,13.37-7.69,23.31v58.07c0,1.38-1.12,2.5-2.5,2.5h-28.12c-1.38,0-2.5-1.12-2.5-2.5Z"/>
    <path class="cls-1" d="M728.51,180.14c-12.15,0-22.88-2.57-32.18-7.69-9.31-5.12-16.57-12.22-21.77-21.3-5.2-9.07-7.81-19.52-7.81-31.35s2.56-22.95,7.69-32.42c5.12-9.46,12.34-16.88,21.65-22.24,9.31-5.36,20.11-8.05,32.42-8.05,11.67,0,22.01,2.53,31,7.57,8.99,5.05,16.01,11.95,21.06,20.71,5.05,8.76,7.57,18.73,7.57,29.93v5.33c0,1.24-.06,2.5-.19,3.77-.13,1.28-1.21,2.26-2.5,2.26h-92.54c-1.38,0-2.5-1.12-2.5-2.5v-14.87c0-1.38,1.12-2.5,2.5-2.5h58.81c1.52,0,2.73-1.35,2.48-2.86-.93-5.63-3.47-10.23-7.6-13.83-4.81-4.18-10.77-6.27-17.87-6.27-5.36,0-10.29,1.18-14.79,3.55-4.5,2.37-8.05,5.96-10.65,10.77-2.6,4.81-3.91,10.93-3.91,18.34v6.86c0,6,1.22,11.24,3.67,15.74,2.44,4.49,5.84,7.97,10.18,10.41,4.34,2.45,9.35,3.67,15.03,3.67s10.18-1.22,13.96-3.67c3.37-2.17,6.05-4.94,8.04-8.3.46-.78,1.28-1.29,2.19-1.29h28.9c1.74,0,2.96,1.73,2.37,3.37-2.27,6.24-5.65,11.95-10.14,17.1-5.29,6.07-11.75,10.89-19.41,14.43-7.65,3.55-16.21,5.33-25.67,5.33Z"/>
    <path class="cls-1" d="M292.86,174.8V14.16c0-1.38,1.12-2.5,2.5-2.5h28.12c1.38,0,2.5,1.12,2.5,2.5v134.84c0,1.38,1.12,2.5,2.5,2.5h67.4c1.38,0,2.5,1.12,2.5,2.5v20.78c0,1.38-1.12,2.5-2.5,2.5h-100.53c-1.38,0-2.5-1.12-2.5-2.5Z"/>
  </g>
  <g>
    <g>
      <path class="cls-3" d="M293.78,248.49v-28.42h5.28v28.42h-5.28Z"/>
      <path class="cls-3" d="M307.34,248.49v-28.42h5.28l13.28,19.9v-19.9h5.28v28.42h-5.28l-13.28-19.85v19.85h-5.28Z"/>
      <path class="cls-3" d="M346.65,248.49v-24.16h-8.32v-4.26h21.88v4.26h-8.28v24.16h-5.28Z"/>
      <path class="cls-3" d="M367.27,248.49v-28.42h18.55v4.26h-13.28v7.67h12.06v4.14h-12.06v8.08h13.28v4.26h-18.55Z"/>
      <path class="cls-3" d="M393.26,248.49v-28.42h5.28v24.28h12.59v4.14h-17.86Z"/>
      <path class="cls-3" d="M418.47,248.49v-28.42h5.28v24.28h12.59v4.14h-17.86Z"/>
      <path class="cls-3" d="M443.72,248.49v-28.42h5.28v28.42h-5.28Z"/>
      <path class="cls-3" d="M470.97,248.97c-3.09,0-5.72-.6-7.9-1.81-2.18-1.2-3.84-2.9-4.99-5.08-1.15-2.18-1.73-4.72-1.73-7.61s.57-5.51,1.73-7.75c1.15-2.25,2.79-4,4.91-5.26,2.12-1.26,4.65-1.89,7.57-1.89,3.36,0,6.13.8,8.32,2.4,2.19,1.6,3.61,3.8,4.26,6.62h-5.93c-.43-1.3-1.2-2.31-2.31-3.04-1.11-.73-2.56-1.1-4.34-1.1s-3.46.41-4.77,1.22c-1.31.81-2.32,1.97-3.02,3.47-.7,1.5-1.06,3.3-1.06,5.38s.36,3.81,1.1,5.26c.73,1.45,1.78,2.56,3.15,3.35,1.37.79,3.04,1.18,5.01,1.18,2.36,0,4.22-.66,5.58-1.99,1.37-1.33,2.06-3.17,2.09-5.52h-7.92v-3.98h13.24v2.27c0,3.06-.56,5.62-1.68,7.67-1.12,2.06-2.66,3.61-4.61,4.65-1.95,1.04-4.18,1.56-6.7,1.56Z"/>
      <path class="cls-3" d="M491.03,248.49v-28.42h18.55v4.26h-13.28v7.67h12.06v4.14h-12.06v8.08h13.28v4.26h-18.55Z"/>
      <path class="cls-3" d="M517.05,248.49v-28.42h5.28l13.28,19.9v-19.9h5.28v28.42h-5.28l-13.28-19.85v19.85h-5.28Z"/>
      <path class="cls-3" d="M556.35,248.49v-24.16h-8.32v-4.26h21.88v4.26h-8.28v24.16h-5.28Z"/>
      <path class="cls-3" d="M604.02,248.97c-1.33,0-2.64-.18-3.94-.55-1.3-.36-2.49-.95-3.57-1.75-1.08-.8-1.98-1.83-2.7-3.09-.72-1.26-1.14-2.77-1.28-4.53h4.87c.22,1.38.67,2.46,1.36,3.25.69.79,1.52,1.33,2.48,1.64.96.31,1.91.47,2.86.47,1.06,0,2-.16,2.82-.49.83-.32,1.47-.79,1.95-1.4.47-.61.71-1.32.71-2.13s-.23-1.59-.69-2.25c-.46-.66-1.45-1.13-2.96-1.4l-4.83-.89c-2.33-.43-4.15-1.36-5.46-2.78s-1.97-3.11-1.97-5.06c0-1.79.45-3.3,1.34-4.55.89-1.25,2.1-2.21,3.61-2.88,1.52-.68,3.18-1.01,4.99-1.01s3.6.32,5.12.97c1.52.65,2.75,1.64,3.69,2.98.95,1.34,1.52,3.07,1.71,5.18h-4.95c-.16-1.22-.52-2.16-1.07-2.82-.56-.66-1.22-1.13-1.99-1.4s-1.56-.41-2.37-.41c-.76,0-1.54.12-2.36.36-.81.24-1.49.64-2.03,1.2-.54.56-.81,1.31-.81,2.25,0,.81.3,1.54.91,2.17.61.64,1.59,1.08,2.94,1.32l4.47.81c2.38.43,4.26,1.28,5.62,2.54,1.37,1.26,2.05,3.09,2.05,5.5,0,1.44-.3,2.69-.91,3.76-.61,1.07-1.41,1.98-2.42,2.72-1,.75-2.12,1.31-3.37,1.68s-2.52.57-3.82.57Z"/>
      <path class="cls-3" d="M628.5,248.49v-10.07l-9.62-18.35h6.01l7.06,14.54h-1.5l7.02-14.54h5.93l-9.62,18.35v10.07h-5.28Z"/>
      <path class="cls-3" d="M658.71,248.97c-1.33,0-2.64-.18-3.94-.55-1.3-.36-2.49-.95-3.57-1.75-1.08-.8-1.98-1.83-2.7-3.09-.72-1.26-1.14-2.77-1.28-4.53h4.87c.22,1.38.67,2.46,1.36,3.25.69.79,1.52,1.33,2.48,1.64.96.31,1.91.47,2.86.47,1.06,0,2-.16,2.82-.49.83-.32,1.47-.79,1.95-1.4.47-.61.71-1.32.71-2.13s-.23-1.59-.69-2.25c-.46-.66-1.45-1.13-2.96-1.4l-4.83-.89c-2.33-.43-4.15-1.36-5.46-2.78s-1.97-3.11-1.97-5.06c0-1.79.45-3.3,1.34-4.55.89-1.25,2.1-2.21,3.61-2.88,1.52-.68,3.18-1.01,4.99-1.01s3.6.32,5.12.97,2.75,1.64,3.69,2.98c.95,1.34,1.52,3.07,1.71,5.18h-4.95c-.16-1.22-.52-2.16-1.07-2.82-.56-.66-1.22-1.13-1.99-1.4s-1.56-.41-2.37-.41c-.76,0-1.54.12-2.36.36-.81.24-1.49.64-2.03,1.2-.54.56-.81,1.31-.81,2.25,0,.81.3,1.54.91,2.17.61.64,1.59,1.08,2.94,1.32l4.47.81c2.38.43,4.26,1.28,5.62,2.54,1.37,1.26,2.05,3.09,2.05,5.5,0,1.44-.3,2.69-.91,3.76-.61,1.07-1.41,1.98-2.42,2.72-1,.75-2.12,1.31-3.37,1.68s-2.52.57-3.82.57Z"/>
      <path class="cls-3" d="M682.5,248.49v-24.16h-8.32v-4.26h21.88v4.26h-8.28v24.16h-5.28Z"/>
      <path class="cls-3" d="M703.13,248.49v-28.42h18.55v4.26h-13.28v7.67h12.06v4.14h-12.06v8.08h13.28v4.26h-18.55Z"/>
      <path class="cls-3" d="M729.11,248.49v-28.42h6.33l10.11,24.08-2.23.28,10.07-24.36h6.29v28.42h-5.28v-24.2l1.79,1.22-9.66,22.98h-4.22l-9.7-22.98,1.79-1.22v24.2h-5.28Z"/>
      <path class="cls-3" d="M778.36,248.97c-1.33,0-2.64-.18-3.94-.55-1.3-.36-2.49-.95-3.57-1.75-1.08-.8-1.98-1.83-2.7-3.09-.72-1.26-1.14-2.77-1.28-4.53h4.87c.22,1.38.67,2.46,1.36,3.25.69.79,1.52,1.33,2.48,1.64.96.31,1.91.47,2.86.47,1.06,0,2-.16,2.82-.49.83-.32,1.47-.79,1.95-1.4.47-.61.71-1.32.71-2.13s-.23-1.59-.69-2.25c-.46-.66-1.45-1.13-2.96-1.4l-4.83-.89c-2.33-.43-4.15-1.36-5.46-2.78s-1.97-3.11-1.97-5.06c0-1.79.45-3.3,1.34-4.55.89-1.25,2.1-2.21,3.61-2.88,1.52-.68,3.18-1.01,4.99-1.01s3.6.32,5.12.97c1.52.65,2.75,1.64,3.69,2.98.95,1.34,1.52,3.07,1.71,5.18h-4.95c-.16-1.22-.52-2.16-1.07-2.82-.56-.66-1.22-1.13-1.99-1.4s-1.56-.41-2.37-.41c-.76,0-1.54.12-2.36.36-.81.24-1.49.64-2.03,1.2-.54.56-.81,1.31-.81,2.25,0,.81.3,1.54.91,2.17.61.64,1.59,1.08,2.94,1.32l4.47.81c2.38.43,4.26,1.28,5.62,2.54,1.37,1.26,2.05,3.09,2.05,5.5,0,1.44-.3,2.69-.91,3.76-.61,1.07-1.41,1.98-2.42,2.72-1,.75-2.12,1.31-3.37,1.68s-2.52.57-3.82.57Z"/>
    </g>
    <g>
      <path class="cls-2" d="M205.65,138.21c2.11,2.06,5,3.34,8.19,3.34,6.48,0,11.74-5.25,11.74-11.74s-5.25-11.74-11.74-11.74c-3.22,0-6.13,1.3-8.25,3.4l-13.93-10.92,1.73-1v-23.57l-20.41-11.79-1.56.9-3.09-22.93c5.02-1.33,8.73-5.89,8.73-11.33,0-6.48-5.25-11.74-11.74-11.74s-11.74,5.25-11.74,11.74c0,1.07.16,2.11.43,3.09l-19.59,8.12v-1.73l-20.41-11.79-20.41,11.79v1.73l-19.59-8.12c.27-.99.43-2.02.43-3.1,0-6.48-5.25-11.74-11.74-11.74s-11.74,5.25-11.74,11.74c0,5.44,3.71,10,8.73,11.33l-3.09,22.93-1.56-.9-20.41,11.79v23.57l1.73,1-13.93,10.92c-2.12-2.1-5.03-3.39-8.25-3.39-6.48,0-11.74,5.25-11.74,11.74s5.25,11.74,11.74,11.74c3.19,0,6.07-1.27,8.19-3.34l14.15,11.26-1.88,1.09v23.57l20.41,11.79,1.56-.9,3.09,22.93c-5.02,1.33-8.73,5.89-8.73,11.33,0,6.48,5.25,11.74,11.74,11.74s11.74-5.25,11.74-11.74c0-1.06-.15-2.07-.41-3.05l19.58-8.02v1.83l20.41,11.79,20.41-11.79v-1.83l19.58,8.02c-.26.97-.41,1.99-.41,3.05,0,6.48,5.25,11.74,11.74,11.74s11.74-5.25,11.74-11.74c0-5.44-3.71-10-8.73-11.33l3.09-22.93,1.56.9,20.41-11.79v-23.57l-1.88-1.09,14.15-11.26ZM203.77,123.79c-1.06,1.76-1.67,3.82-1.67,6.02s.64,4.31,1.72,6.09l-15.06,11.99-14.32-8.27v-19.14l14.47-8.35,14.87,11.66ZM132.74,185.51l-18.75-10.83-18.75,10.83-19.81-12.26v-22.69l-18.94-10.94v-19.14l18.94-10.94v-22.51l20.04-12.07,18.53,10.7,18.53-10.7,20.04,12.07v22.51l18.94,10.94v19.14l-18.94,10.94v22.69l-19.81,12.26ZM155.12,46.64c2.02,3.53,5.82,5.92,10.18,5.92.03,0,.06,0,.09,0l3.25,24.13-14.08,8.13-20.16-12.14v-17.44l20.72-8.59ZM62.59,52.56s.06,0,.09,0c4.36,0,8.16-2.39,10.18-5.92l20.72,8.59v17.44l-20.16,12.14-14.08-8.13,3.25-24.13ZM24.17,135.9c1.08-1.78,1.72-3.86,1.72-6.09s-.62-4.26-1.67-6.02l14.87-11.66,14.47,8.35v19.14l-14.32,8.27-15.06-11.99ZM72.89,213.5c-2.02-3.56-5.83-5.96-10.21-5.96-.03,0-.06,0-.09,0l-3.25-24.13,13.93-8.04,20.31,12.57v17.08l-20.69,8.48ZM165.4,207.55s-.06,0-.09,0c-4.38,0-8.19,2.41-10.21,5.96l-20.69-8.48v-17.08l20.31-12.57,13.93,8.04-3.25,24.13Z"/>
      <path class="cls-2" d="M113.99,33.58c11.12,0,20.17-9.05,20.17-20.17h-2.94c0,9.5-7.73,17.22-17.22,17.22s-17.22-7.73-17.22-17.22h-2.94c0,11.12,9.05,20.17,20.17,20.17Z"/>
      <path class="cls-2" d="M113.99,23.27c5.45,0,9.86-4.42,9.86-9.86s-4.42-9.86-9.86-9.86-9.86,4.42-9.86,9.86,4.42,9.86,9.86,9.86Z"/>
      <path class="cls-2" d="M113.75,227.16c-11.12.14-20.06,9.29-19.92,20.41l2.94-.04c-.12-9.5,7.52-17.32,17.01-17.43,4.57-.07,8.94,1.69,12.23,4.9,3.3,3.22,5.14,7.52,5.2,12.11l2.94-.04c-.07-5.38-2.23-10.42-6.09-14.18-3.86-3.77-8.96-5.79-14.33-5.74Z"/>
      <path class="cls-2" d="M113.99,237.47c-5.45,0-9.86,4.42-9.86,9.86s4.42,9.86,9.86,9.86,9.86-4.42,9.86-9.86-4.42-9.86-9.86-9.86Z"/>
      <path class="cls-2" d="M212.02,91.47c1.18.21,2.36.31,3.53.31,4.11,0,8.11-1.25,11.54-3.66l-1.69-2.41c-3.76,2.64-8.33,3.66-12.87,2.86-4.54-.79-8.49-3.3-11.13-7.06-5.46-7.77-3.58-18.54,4.2-24l-1.69-2.41c-9.1,6.39-11.31,19-4.91,28.1,3.09,4.4,7.72,7.34,13.03,8.27Z"/>
      <circle class="cls-3" cx="215.49" cy="71.61" r="9.86"/>
      <path class="cls-2" d="M210.95,169.01c-5.25,1.21-9.72,4.4-12.57,8.96-2.85,4.56-3.75,9.97-2.54,15.23,1.22,5.25,4.4,9.72,8.96,12.57l1.56-2.5c-3.9-2.43-6.61-6.24-7.65-10.73-1.04-4.49-.27-9.11,2.16-13,2.43-3.9,6.24-6.61,10.73-7.65,4.48-1.04,9.1-.27,13,2.16l1.56-2.5c-4.56-2.85-9.97-3.75-15.22-2.54Z"/>
      <path class="cls-2" d="M215.49,178.79c-5.45,0-9.86,4.42-9.86,9.86s4.42,9.86,9.86,9.86,9.86-4.42,9.86-9.86-4.42-9.86-9.86-9.86Z"/>
      <path class="cls-2" d="M15.97,168.74c-5.33-.85-10.66.43-15.01,3.59l1.73,2.38c3.71-2.7,8.26-3.79,12.82-3.07,4.55.72,8.54,3.16,11.24,6.88,5.58,7.68,3.87,18.48-3.81,24.06l1.73,2.38c9-6.54,11-19.18,4.46-28.17-3.16-4.35-7.84-7.21-13.16-8.06Z"/>
      <path class="cls-2" d="M12.81,178.79c-5.45,0-9.86,4.42-9.86,9.86s4.42,9.86,9.86,9.86,9.86-4.42,9.86-9.86-4.42-9.86-9.86-9.86Z"/>
      <path class="cls-2" d="M17.1,91.31c5.27-1.15,9.77-4.27,12.68-8.8,6.01-9.36,3.29-21.86-6.06-27.87l-1.59,2.48c7.99,5.14,10.31,15.81,5.18,23.8-2.48,3.86-6.33,6.53-10.83,7.51-4.5.98-9.11.15-12.97-2.33l-1.59,2.48c3.29,2.11,7.03,3.2,10.85,3.2,1.44,0,2.89-.16,4.34-.47Z"/>
      <circle class="cls-3" cx="12.81" cy="71.61" r="9.86"/>
    </g>
  </g>
</svg>